<mxfile modified="2023-06-20T20:19:31.789Z" host="app.diagrams.net" agent="Mozilla/5.0 (Macintosh; Intel Mac OS X 10_15_7) AppleWebKit/537.36 (KHTML, like Gecko) Chrome/114.0.0.0 Safari/537.36" etag="pSYpTs6X2gKZWFKW4toQ" version="21.3.8" type="device" pages="2">
  <diagram id="Ht1M8jgEwFfnCIfOTk4-" name="One-Time Installation">
    <mxGraphModel dx="1306" dy="726" grid="1" gridSize="10" guides="1" tooltips="1" connect="1" arrows="1" fold="1" page="1" pageScale="1" pageWidth="827" pageHeight="1169" math="0" shadow="0">
      <root>
        <mxCell id="0" />
        <mxCell id="1" parent="0" />
        <mxCell id="-QjtrjUzRDEMRZ5MF8oH-47" value="Real Time Quant Trading - Installation" style="text;html=1;resizable=0;points=[];autosize=1;align=left;verticalAlign=top;spacingTop=-4;fontSize=30;fontStyle=1" parent="1" vertex="1">
          <mxGeometry x="12" y="87.5" width="560" height="40" as="geometry" />
        </mxCell>
        <mxCell id="SCVMTBWpLvtzJIhz15lM-1" value="" style="line;strokeWidth=2;html=1;fontSize=14;" parent="1" vertex="1">
          <mxGeometry x="8" y="140.5" width="1372" height="10" as="geometry" />
        </mxCell>
        <mxCell id="1YG8F1t2I11W7s8lwDOm-31" value="" style="edgeStyle=orthogonalEdgeStyle;rounded=0;orthogonalLoop=1;jettySize=auto;html=1;fontFamily=Verdana;fontSize=10;" parent="1" edge="1">
          <mxGeometry relative="1" as="geometry">
            <mxPoint x="80" y="609.0000000000001" as="sourcePoint" />
            <mxPoint x="130" y="609.0000000000001" as="targetPoint" />
            <Array as="points">
              <mxPoint x="90" y="609" />
              <mxPoint x="90" y="609" />
            </Array>
          </mxGeometry>
        </mxCell>
        <mxCell id="1YG8F1t2I11W7s8lwDOm-1" value="" style="dashed=0;outlineConnect=0;html=1;align=center;labelPosition=center;verticalLabelPosition=bottom;verticalAlign=top;shape=mxgraph.weblogos.github" parent="1" vertex="1">
          <mxGeometry x="20" y="575.5" width="60" height="61.5" as="geometry" />
        </mxCell>
        <mxCell id="1YG8F1t2I11W7s8lwDOm-7" value="&lt;font style=&quot;font-size: 10px;&quot;&gt;GitHub&lt;/font&gt;" style="text;html=1;strokeColor=none;fillColor=none;align=center;verticalAlign=middle;whiteSpace=wrap;rounded=0;" parent="1" vertex="1">
          <mxGeometry x="20" y="636.5" width="60" height="30" as="geometry" />
        </mxCell>
        <mxCell id="1YG8F1t2I11W7s8lwDOm-21" value="" style="group;glass=0;perimeterSpacing=0;strokeWidth=0;" parent="1" vertex="1" connectable="0">
          <mxGeometry x="353" y="316" width="420" height="196.5" as="geometry" />
        </mxCell>
        <mxCell id="1YG8F1t2I11W7s8lwDOm-12" value="" style="rounded=0;whiteSpace=wrap;html=1;sketch=1;fillStyle=auto;fontSize=10;fillColor=none;" parent="1YG8F1t2I11W7s8lwDOm-21" vertex="1">
          <mxGeometry width="420" height="196.5" as="geometry" />
        </mxCell>
        <mxCell id="1YG8F1t2I11W7s8lwDOm-20" value="&lt;font style=&quot;font-size: 10px;&quot;&gt;Environment App&lt;/font&gt;" style="text;html=1;strokeColor=none;fillColor=none;align=center;verticalAlign=middle;whiteSpace=wrap;rounded=0;fontStyle=1" parent="1YG8F1t2I11W7s8lwDOm-21" vertex="1">
          <mxGeometry x="171" width="110" height="30" as="geometry" />
        </mxCell>
        <mxCell id="1YG8F1t2I11W7s8lwDOm-23" value="" style="sketch=0;points=[[0,0,0],[0.25,0,0],[0.5,0,0],[0.75,0,0],[1,0,0],[0,1,0],[0.25,1,0],[0.5,1,0],[0.75,1,0],[1,1,0],[0,0.25,0],[0,0.5,0],[0,0.75,0],[1,0.25,0],[1,0.5,0],[1,0.75,0]];outlineConnect=0;fontColor=#232F3E;gradientColor=#4D72F3;gradientDirection=north;fillColor=#3334B9;strokeColor=#ffffff;dashed=0;verticalLabelPosition=bottom;verticalAlign=top;align=center;html=1;fontSize=12;fontStyle=0;aspect=fixed;shape=mxgraph.aws4.resourceIcon;resIcon=mxgraph.aws4.codepipeline;glass=0;fillStyle=auto;strokeWidth=0;" parent="1YG8F1t2I11W7s8lwDOm-21" vertex="1">
          <mxGeometry x="45.13" y="30" width="50" height="50" as="geometry" />
        </mxCell>
        <mxCell id="1YG8F1t2I11W7s8lwDOm-24" value="&lt;font style=&quot;font-size: 10px;&quot;&gt;AWS CodePipeline&lt;/font&gt;" style="text;html=1;strokeColor=none;fillColor=none;align=center;verticalAlign=middle;whiteSpace=wrap;rounded=0;" parent="1YG8F1t2I11W7s8lwDOm-21" vertex="1">
          <mxGeometry x="20" y="72" width="100.25" height="30" as="geometry" />
        </mxCell>
        <mxCell id="1YG8F1t2I11W7s8lwDOm-27" value="&lt;font style=&quot;font-size: 10px;&quot;&gt;VPC&lt;/font&gt;" style="text;html=1;strokeColor=none;fillColor=none;align=center;verticalAlign=middle;whiteSpace=wrap;rounded=0;" parent="1YG8F1t2I11W7s8lwDOm-21" vertex="1">
          <mxGeometry x="5.0000000000000036" y="156.5" width="65.13" height="16.5" as="geometry" />
        </mxCell>
        <mxCell id="1YG8F1t2I11W7s8lwDOm-29" value="" style="sketch=0;points=[[0,0,0],[0.25,0,0],[0.5,0,0],[0.75,0,0],[1,0,0],[0,1,0],[0.25,1,0],[0.5,1,0],[0.75,1,0],[1,1,0],[0,0.25,0],[0,0.5,0],[0,0.75,0],[1,0.25,0],[1,0.5,0],[1,0.75,0]];outlineConnect=0;fontColor=#232F3E;gradientColor=#945DF2;gradientDirection=north;fillColor=#5A30B5;strokeColor=#ffffff;dashed=0;verticalLabelPosition=bottom;verticalAlign=top;align=center;html=1;fontSize=12;fontStyle=0;aspect=fixed;shape=mxgraph.aws4.resourceIcon;resIcon=mxgraph.aws4.vpc;glass=0;fillStyle=auto;strokeWidth=0;fontFamily=Verdana;" parent="1YG8F1t2I11W7s8lwDOm-21" vertex="1">
          <mxGeometry x="17.569999999999997" y="116.5" width="40" height="40" as="geometry" />
        </mxCell>
        <mxCell id="1YG8F1t2I11W7s8lwDOm-33" value="" style="sketch=0;points=[[0,0,0],[0.25,0,0],[0.5,0,0],[0.75,0,0],[1,0,0],[0,1,0],[0.25,1,0],[0.5,1,0],[0.75,1,0],[1,1,0],[0,0.25,0],[0,0.5,0],[0,0.75,0],[1,0.25,0],[1,0.5,0],[1,0.75,0]];outlineConnect=0;fontColor=#232F3E;gradientColor=#F78E04;gradientDirection=north;fillColor=#D05C17;strokeColor=#ffffff;dashed=0;verticalLabelPosition=bottom;verticalAlign=top;align=center;html=1;fontSize=12;fontStyle=0;aspect=fixed;shape=mxgraph.aws4.resourceIcon;resIcon=mxgraph.aws4.ecr;glass=0;fillStyle=auto;strokeWidth=0;fontFamily=Verdana;" parent="1YG8F1t2I11W7s8lwDOm-21" vertex="1">
          <mxGeometry x="300" y="59.5" width="40" height="40" as="geometry" />
        </mxCell>
        <mxCell id="1YG8F1t2I11W7s8lwDOm-34" value="&lt;font style=&quot;font-size: 10px;&quot;&gt;Amazon ECR&lt;/font&gt;" style="text;html=1;strokeColor=none;fillColor=none;align=center;verticalAlign=middle;whiteSpace=wrap;rounded=0;" parent="1YG8F1t2I11W7s8lwDOm-21" vertex="1">
          <mxGeometry x="258.72" y="99.5" width="122.56" height="16.5" as="geometry" />
        </mxCell>
        <mxCell id="1YG8F1t2I11W7s8lwDOm-42" style="edgeStyle=orthogonalEdgeStyle;rounded=0;orthogonalLoop=1;jettySize=auto;html=1;entryX=1;entryY=0.5;entryDx=0;entryDy=0;entryPerimeter=0;fontFamily=Verdana;fontSize=10;" parent="1YG8F1t2I11W7s8lwDOm-21" source="1YG8F1t2I11W7s8lwDOm-35" target="1YG8F1t2I11W7s8lwDOm-23" edge="1">
          <mxGeometry relative="1" as="geometry" />
        </mxCell>
        <mxCell id="1YG8F1t2I11W7s8lwDOm-35" value="" style="sketch=0;points=[[0,0,0],[0.25,0,0],[0.5,0,0],[0.75,0,0],[1,0,0],[0,1,0],[0.25,1,0],[0.5,1,0],[0.75,1,0],[1,1,0],[0,0.25,0],[0,0.5,0],[0,0.75,0],[1,0.25,0],[1,0.5,0],[1,0.75,0]];outlineConnect=0;fontColor=#232F3E;gradientColor=#4D72F3;gradientDirection=north;fillColor=#3334B9;strokeColor=#ffffff;dashed=0;verticalLabelPosition=bottom;verticalAlign=top;align=center;html=1;fontSize=12;fontStyle=0;aspect=fixed;shape=mxgraph.aws4.resourceIcon;resIcon=mxgraph.aws4.codecommit;glass=0;fillStyle=auto;strokeWidth=0;fontFamily=Verdana;" parent="1YG8F1t2I11W7s8lwDOm-21" vertex="1">
          <mxGeometry x="160" y="80" width="58" height="58" as="geometry" />
        </mxCell>
        <mxCell id="1YG8F1t2I11W7s8lwDOm-36" value="&lt;font style=&quot;font-size: 10px;&quot;&gt;CodeCommit Repository&lt;/font&gt;" style="text;html=1;strokeColor=none;fillColor=none;align=center;verticalAlign=middle;whiteSpace=wrap;rounded=0;" parent="1YG8F1t2I11W7s8lwDOm-21" vertex="1">
          <mxGeometry x="138.87" y="138" width="100.25" height="30" as="geometry" />
        </mxCell>
        <mxCell id="1YG8F1t2I11W7s8lwDOm-37" value="" style="sketch=0;outlineConnect=0;fontColor=#232F3E;gradientColor=none;fillColor=#BF0816;strokeColor=none;dashed=0;verticalLabelPosition=bottom;verticalAlign=top;align=center;html=1;fontSize=12;fontStyle=0;aspect=fixed;pointerEvents=1;shape=mxgraph.aws4.role;glass=0;fillStyle=auto;strokeWidth=0;fontFamily=Verdana;" parent="1YG8F1t2I11W7s8lwDOm-21" vertex="1">
          <mxGeometry x="290" y="130.5" width="53.18" height="30" as="geometry" />
        </mxCell>
        <mxCell id="1YG8F1t2I11W7s8lwDOm-38" value="&lt;font style=&quot;font-size: 10px;&quot;&gt;IAM Roles&lt;/font&gt;" style="text;html=1;strokeColor=none;fillColor=none;align=center;verticalAlign=middle;whiteSpace=wrap;rounded=0;" parent="1YG8F1t2I11W7s8lwDOm-21" vertex="1">
          <mxGeometry x="270" y="160.5" width="100" height="16.5" as="geometry" />
        </mxCell>
        <mxCell id="1YG8F1t2I11W7s8lwDOm-41" style="edgeStyle=orthogonalEdgeStyle;rounded=0;orthogonalLoop=1;jettySize=auto;html=1;fontFamily=Verdana;fontSize=10;sourcePerimeterSpacing=20;" parent="1" source="1YG8F1t2I11W7s8lwDOm-39" edge="1">
          <mxGeometry relative="1" as="geometry">
            <mxPoint x="529" y="396" as="targetPoint" />
          </mxGeometry>
        </mxCell>
        <mxCell id="1YG8F1t2I11W7s8lwDOm-39" value="" style="sketch=0;aspect=fixed;pointerEvents=1;shadow=0;dashed=0;html=1;strokeColor=none;labelPosition=center;verticalLabelPosition=bottom;verticalAlign=top;align=center;fillColor=#00188D;shape=mxgraph.azure.user;glass=0;fillStyle=auto;strokeWidth=0;fontFamily=Verdana;fontSize=10;" parent="1" vertex="1">
          <mxGeometry x="505.5" y="163.5" width="47" height="50" as="geometry" />
        </mxCell>
        <mxCell id="1YG8F1t2I11W7s8lwDOm-40" value="&lt;font style=&quot;font-size: 10px;&quot;&gt;User&lt;/font&gt;" style="text;html=1;strokeColor=none;fillColor=none;align=center;verticalAlign=middle;whiteSpace=wrap;rounded=0;" parent="1" vertex="1">
          <mxGeometry x="500" y="213.5" width="60" height="16.5" as="geometry" />
        </mxCell>
        <mxCell id="1YG8F1t2I11W7s8lwDOm-44" value="&lt;font style=&quot;font-size: 10px;&quot;&gt;Database App&lt;/font&gt;" style="text;html=1;strokeColor=none;fillColor=none;align=center;verticalAlign=middle;whiteSpace=wrap;rounded=0;fontStyle=1" parent="1" vertex="1">
          <mxGeometry x="508" y="527.5" width="110" height="30" as="geometry" />
        </mxCell>
        <mxCell id="1YG8F1t2I11W7s8lwDOm-96" value="AWS Cloud" style="points=[[0,0],[0.25,0],[0.5,0],[0.75,0],[1,0],[1,0.25],[1,0.5],[1,0.75],[1,1],[0.75,1],[0.5,1],[0.25,1],[0,1],[0,0.75],[0,0.5],[0,0.25]];outlineConnect=0;gradientColor=none;html=1;whiteSpace=wrap;fontSize=12;fontStyle=0;shape=mxgraph.aws4.group;grIcon=mxgraph.aws4.group_aws_cloud_alt;strokeColor=#232F3E;fillColor=none;verticalAlign=top;align=left;spacingLeft=30;fontColor=#232F3E;dashed=0;container=1;pointerEvents=0;collapsible=0;recursiveResize=0;" parent="1" vertex="1">
          <mxGeometry x="90" y="244" width="1310" height="806" as="geometry" />
        </mxCell>
        <mxCell id="-QjtrjUzRDEMRZ5MF8oH-9" value="1" style="rounded=1;whiteSpace=wrap;html=1;fillColor=#007CBD;strokeColor=none;fontColor=#FFFFFF;fontStyle=1;fontSize=22;" parent="1YG8F1t2I11W7s8lwDOm-96" vertex="1">
          <mxGeometry x="46" y="418" width="40" height="38" as="geometry" />
        </mxCell>
        <mxCell id="pSxyhMbPlTyfpxuRHcjZ-1" value="" style="rounded=0;whiteSpace=wrap;html=1;sketch=1;fillStyle=auto;fontSize=10;fillColor=none;" parent="1YG8F1t2I11W7s8lwDOm-96" vertex="1">
          <mxGeometry x="263" y="460" width="420" height="110" as="geometry" />
        </mxCell>
        <mxCell id="pSxyhMbPlTyfpxuRHcjZ-2" value="&lt;font style=&quot;font-size: 10px;&quot;&gt;Secrets Stack&lt;/font&gt;" style="text;html=1;strokeColor=none;fillColor=none;align=center;verticalAlign=middle;whiteSpace=wrap;rounded=0;fontStyle=1" parent="1YG8F1t2I11W7s8lwDOm-96" vertex="1">
          <mxGeometry x="413" y="463" width="110" height="30" as="geometry" />
        </mxCell>
        <mxCell id="pSxyhMbPlTyfpxuRHcjZ-3" value="&lt;font style=&quot;font-size: 10px;&quot; face=&quot;Helvetica&quot;&gt;AWS Secrets &lt;br&gt;Manager&lt;/font&gt;" style="sketch=0;points=[[0,0,0],[0.25,0,0],[0.5,0,0],[0.75,0,0],[1,0,0],[0,1,0],[0.25,1,0],[0.5,1,0],[0.75,1,0],[1,1,0],[0,0.25,0],[0,0.5,0],[0,0.75,0],[1,0.25,0],[1,0.5,0],[1,0.75,0]];outlineConnect=0;fontColor=#232F3E;gradientColor=#F54749;gradientDirection=north;fillColor=#C7131F;strokeColor=#ffffff;dashed=0;verticalLabelPosition=bottom;verticalAlign=top;align=center;html=1;fontSize=12;fontStyle=0;aspect=fixed;shape=mxgraph.aws4.resourceIcon;resIcon=mxgraph.aws4.secrets_manager;fontFamily=Verdana;" parent="1YG8F1t2I11W7s8lwDOm-96" vertex="1">
          <mxGeometry x="448" y="490.38" width="40" height="40" as="geometry" />
        </mxCell>
        <mxCell id="pSxyhMbPlTyfpxuRHcjZ-11" value="" style="rounded=0;whiteSpace=wrap;html=1;sketch=1;fillStyle=auto;fontSize=10;fillColor=none;" parent="1YG8F1t2I11W7s8lwDOm-96" vertex="1">
          <mxGeometry x="263" y="583" width="420" height="110" as="geometry" />
        </mxCell>
        <mxCell id="pSxyhMbPlTyfpxuRHcjZ-12" value="&lt;font style=&quot;font-size: 10px;&quot;&gt;AppConfig Stack&lt;br&gt;&lt;/font&gt;" style="text;html=1;strokeColor=none;fillColor=none;align=center;verticalAlign=middle;whiteSpace=wrap;rounded=0;fontStyle=1" parent="1YG8F1t2I11W7s8lwDOm-96" vertex="1">
          <mxGeometry x="418" y="593" width="110" height="30" as="geometry" />
        </mxCell>
        <mxCell id="pSxyhMbPlTyfpxuRHcjZ-13" value="&lt;font style=&quot;font-size: 10px;&quot;&gt;AWS AppConfig&lt;/font&gt;" style="sketch=0;points=[[0,0,0],[0.25,0,0],[0.5,0,0],[0.75,0,0],[1,0,0],[0,1,0],[0.25,1,0],[0.5,1,0],[0.75,1,0],[1,1,0],[0,0.25,0],[0,0.5,0],[0,0.75,0],[1,0.25,0],[1,0.5,0],[1,0.75,0]];points=[[0,0,0],[0.25,0,0],[0.5,0,0],[0.75,0,0],[1,0,0],[0,1,0],[0.25,1,0],[0.5,1,0],[0.75,1,0],[1,1,0],[0,0.25,0],[0,0.5,0],[0,0.75,0],[1,0.25,0],[1,0.5,0],[1,0.75,0]];outlineConnect=0;fontColor=#232F3E;gradientColor=#F34482;gradientDirection=north;fillColor=#BC1356;strokeColor=#ffffff;dashed=0;verticalLabelPosition=bottom;verticalAlign=top;align=center;html=1;fontSize=12;fontStyle=0;aspect=fixed;shape=mxgraph.aws4.resourceIcon;resIcon=mxgraph.aws4.systems_manager;fontFamily=Helvetica;" parent="1YG8F1t2I11W7s8lwDOm-96" vertex="1">
          <mxGeometry x="448" y="623" width="40" height="40" as="geometry" />
        </mxCell>
        <mxCell id="xbdBywkf3p36BgYFxFzm-5" style="edgeStyle=orthogonalEdgeStyle;rounded=0;orthogonalLoop=1;jettySize=auto;html=1;entryX=0;entryY=0.5;entryDx=0;entryDy=0;" parent="1YG8F1t2I11W7s8lwDOm-96" source="pSxyhMbPlTyfpxuRHcjZ-17" target="xbdBywkf3p36BgYFxFzm-2" edge="1">
          <mxGeometry relative="1" as="geometry">
            <mxPoint x="521.2293539619486" y="363.9999999999998" as="targetPoint" />
          </mxGeometry>
        </mxCell>
        <mxCell id="hpeKW4kF99izodnpRywB-7" style="edgeStyle=orthogonalEdgeStyle;rounded=0;orthogonalLoop=1;jettySize=auto;html=1;entryX=0;entryY=0.5;entryDx=0;entryDy=0;sourcePerimeterSpacing=20;" parent="1YG8F1t2I11W7s8lwDOm-96" source="pSxyhMbPlTyfpxuRHcjZ-17" target="pSxyhMbPlTyfpxuRHcjZ-1" edge="1">
          <mxGeometry relative="1" as="geometry">
            <Array as="points">
              <mxPoint x="196" y="515" />
            </Array>
          </mxGeometry>
        </mxCell>
        <mxCell id="hpeKW4kF99izodnpRywB-8" style="edgeStyle=orthogonalEdgeStyle;rounded=0;orthogonalLoop=1;jettySize=auto;html=1;entryX=0;entryY=0.5;entryDx=0;entryDy=0;sourcePerimeterSpacing=25;" parent="1YG8F1t2I11W7s8lwDOm-96" source="pSxyhMbPlTyfpxuRHcjZ-17" target="pSxyhMbPlTyfpxuRHcjZ-11" edge="1">
          <mxGeometry relative="1" as="geometry">
            <Array as="points">
              <mxPoint x="196" y="638" />
            </Array>
          </mxGeometry>
        </mxCell>
        <mxCell id="pSxyhMbPlTyfpxuRHcjZ-17" value="&lt;font style=&quot;font-size: 10px;&quot;&gt;AWS CloudFormation&lt;/font&gt;" style="sketch=0;points=[[0,0,0],[0.25,0,0],[0.5,0,0],[0.75,0,0],[1,0,0],[0,1,0],[0.25,1,0],[0.5,1,0],[0.75,1,0],[1,1,0],[0,0.25,0],[0,0.5,0],[0,0.75,0],[1,0.25,0],[1,0.5,0],[1,0.75,0]];points=[[0,0,0],[0.25,0,0],[0.5,0,0],[0.75,0,0],[1,0,0],[0,1,0],[0.25,1,0],[0.5,1,0],[0.75,1,0],[1,1,0],[0,0.25,0],[0,0.5,0],[0,0.75,0],[1,0.25,0],[1,0.5,0],[1,0.75,0]];outlineConnect=0;fontColor=#232F3E;gradientColor=#F34482;gradientDirection=north;fillColor=#BC1356;strokeColor=#ffffff;dashed=0;verticalLabelPosition=bottom;verticalAlign=top;align=center;html=1;fontSize=12;fontStyle=0;aspect=fixed;shape=mxgraph.aws4.resourceIcon;resIcon=mxgraph.aws4.cloudformation;glass=0;fillStyle=auto;strokeWidth=0;fontFamily=Verdana;spacingBottom=0;spacingTop=-2;" parent="1YG8F1t2I11W7s8lwDOm-96" vertex="1">
          <mxGeometry x="170" y="338" width="52" height="52" as="geometry" />
        </mxCell>
        <mxCell id="B7Kx4DZGXoMoTLI39jHN-47" style="edgeStyle=orthogonalEdgeStyle;rounded=0;orthogonalLoop=1;jettySize=auto;html=1;entryX=0;entryY=0.5;entryDx=0;entryDy=0;entryPerimeter=0;" parent="1YG8F1t2I11W7s8lwDOm-96" source="pSxyhMbPlTyfpxuRHcjZ-18" target="pSxyhMbPlTyfpxuRHcjZ-17" edge="1">
          <mxGeometry relative="1" as="geometry" />
        </mxCell>
        <mxCell id="pSxyhMbPlTyfpxuRHcjZ-18" value="&lt;font style=&quot;font-size: 10px;&quot;&gt;AWS CDK&lt;/font&gt;" style="sketch=0;points=[[0,0,0],[0.25,0,0],[0.5,0,0],[0.75,0,0],[1,0,0],[0,1,0],[0.25,1,0],[0.5,1,0],[0.75,1,0],[1,1,0],[0,0.25,0],[0,0.5,0],[0,0.75,0],[1,0.25,0],[1,0.5,0],[1,0.75,0]];outlineConnect=0;fontColor=#232F3E;gradientColor=#4D72F3;gradientDirection=north;fillColor=#3334B9;strokeColor=#ffffff;dashed=0;verticalLabelPosition=bottom;verticalAlign=top;align=center;html=1;fontSize=12;fontStyle=0;aspect=fixed;shape=mxgraph.aws4.resourceIcon;resIcon=mxgraph.aws4.cloud_development_kit;" parent="1YG8F1t2I11W7s8lwDOm-96" vertex="1">
          <mxGeometry x="40" y="338" width="52" height="52" as="geometry" />
        </mxCell>
        <mxCell id="htd3RePkARj6xEcTo_XB-1" value="2" style="rounded=1;whiteSpace=wrap;html=1;fillColor=#007CBD;strokeColor=none;fontColor=#FFFFFF;fontStyle=1;fontSize=22;" parent="1YG8F1t2I11W7s8lwDOm-96" vertex="1">
          <mxGeometry x="695" y="520" width="40" height="38" as="geometry" />
        </mxCell>
        <mxCell id="htd3RePkARj6xEcTo_XB-2" value="" style="sketch=0;aspect=fixed;pointerEvents=1;shadow=0;dashed=0;html=1;strokeColor=none;labelPosition=center;verticalLabelPosition=bottom;verticalAlign=top;align=center;fillColor=#00188D;shape=mxgraph.azure.user;glass=0;fillStyle=auto;strokeWidth=0;fontFamily=Verdana;fontSize=10;" parent="1YG8F1t2I11W7s8lwDOm-96" vertex="1">
          <mxGeometry x="689.5000000000001" y="558" width="47" height="50" as="geometry" />
        </mxCell>
        <mxCell id="htd3RePkARj6xEcTo_XB-4" value="" style="sketch=0;aspect=fixed;pointerEvents=1;shadow=0;dashed=0;html=1;strokeColor=none;labelPosition=center;verticalLabelPosition=bottom;verticalAlign=top;align=center;fillColor=#00188D;shape=mxgraph.azure.user;glass=0;fillStyle=auto;strokeWidth=0;fontFamily=Verdana;fontSize=10;" parent="1YG8F1t2I11W7s8lwDOm-96" vertex="1">
          <mxGeometry x="40.000000000000114" y="456" width="47" height="50" as="geometry" />
        </mxCell>
        <mxCell id="xbdBywkf3p36BgYFxFzm-2" value="" style="rounded=0;whiteSpace=wrap;html=1;fillColor=none;" parent="1YG8F1t2I11W7s8lwDOm-96" vertex="1">
          <mxGeometry x="780" y="134" width="480" height="460" as="geometry" />
        </mxCell>
        <mxCell id="B7Kx4DZGXoMoTLI39jHN-23" value="" style="rounded=0;whiteSpace=wrap;html=1;sketch=1;fillStyle=auto;fontSize=10;fillColor=none;" parent="1YG8F1t2I11W7s8lwDOm-96" vertex="1">
          <mxGeometry x="810" y="169" width="420" height="136.25" as="geometry" />
        </mxCell>
        <mxCell id="B7Kx4DZGXoMoTLI39jHN-24" value="" style="rounded=0;whiteSpace=wrap;html=1;sketch=1;fillStyle=auto;fontSize=10;fillColor=none;" parent="1YG8F1t2I11W7s8lwDOm-96" vertex="1">
          <mxGeometry x="810" y="320" width="420" height="115.25" as="geometry" />
        </mxCell>
        <mxCell id="B7Kx4DZGXoMoTLI39jHN-25" value="" style="rounded=0;whiteSpace=wrap;html=1;sketch=1;fillStyle=auto;fontSize=10;fillColor=none;" parent="1YG8F1t2I11W7s8lwDOm-96" vertex="1">
          <mxGeometry x="810" y="444.5" width="420" height="110.75" as="geometry" />
        </mxCell>
        <mxCell id="B7Kx4DZGXoMoTLI39jHN-26" value="&lt;font style=&quot;font-size: 10px;&quot;&gt;Database App&lt;/font&gt;" style="text;html=1;strokeColor=none;fillColor=none;align=center;verticalAlign=middle;whiteSpace=wrap;rounded=0;fontStyle=1" parent="1YG8F1t2I11W7s8lwDOm-96" vertex="1">
          <mxGeometry x="965" y="170.25" width="110" height="30" as="geometry" />
        </mxCell>
        <mxCell id="B7Kx4DZGXoMoTLI39jHN-27" value="&lt;font style=&quot;font-size: 10px;&quot;&gt;Amazon SSM&lt;/font&gt;" style="text;html=1;strokeColor=none;fillColor=none;align=center;verticalAlign=middle;whiteSpace=wrap;rounded=0;" parent="1YG8F1t2I11W7s8lwDOm-96" vertex="1">
          <mxGeometry x="882.43" y="265.75" width="65.13" height="16.5" as="geometry" />
        </mxCell>
        <mxCell id="B7Kx4DZGXoMoTLI39jHN-28" value="" style="sketch=0;points=[[0,0,0],[0.25,0,0],[0.5,0,0],[0.75,0,0],[1,0,0],[0,1,0],[0.25,1,0],[0.5,1,0],[0.75,1,0],[1,1,0],[0,0.25,0],[0,0.5,0],[0,0.75,0],[1,0.25,0],[1,0.5,0],[1,0.75,0]];outlineConnect=0;fontColor=#232F3E;gradientColor=#4D72F3;gradientDirection=north;fillColor=#3334B9;strokeColor=#ffffff;dashed=0;verticalLabelPosition=bottom;verticalAlign=top;align=center;html=1;fontSize=12;fontStyle=0;aspect=fixed;shape=mxgraph.aws4.resourceIcon;resIcon=mxgraph.aws4.dynamodb;glass=0;fillStyle=auto;strokeWidth=0;fontFamily=Verdana;" parent="1YG8F1t2I11W7s8lwDOm-96" vertex="1">
          <mxGeometry x="989.5" y="212.25" width="46" height="46" as="geometry" />
        </mxCell>
        <mxCell id="B7Kx4DZGXoMoTLI39jHN-29" value="&lt;span style=&quot;font-size: 10px;&quot;&gt;Amazon DynamoDB&lt;/span&gt;" style="text;html=1;strokeColor=none;fillColor=none;align=center;verticalAlign=middle;whiteSpace=wrap;rounded=0;" parent="1YG8F1t2I11W7s8lwDOm-96" vertex="1">
          <mxGeometry x="979.9300000000001" y="262.75" width="65.13" height="16.5" as="geometry" />
        </mxCell>
        <mxCell id="B7Kx4DZGXoMoTLI39jHN-30" value="" style="sketch=0;points=[[0,0,0],[0.25,0,0],[0.5,0,0],[0.75,0,0],[1,0,0],[0,1,0],[0.25,1,0],[0.5,1,0],[0.75,1,0],[1,1,0],[0,0.25,0],[0,0.5,0],[0,0.75,0],[1,0.25,0],[1,0.5,0],[1,0.75,0]];outlineConnect=0;fontColor=#232F3E;gradientColor=#4D72F3;gradientDirection=north;fillColor=#3334B9;strokeColor=#ffffff;dashed=0;verticalLabelPosition=bottom;verticalAlign=top;align=center;html=1;fontSize=12;fontStyle=0;aspect=fixed;shape=mxgraph.aws4.resourceIcon;resIcon=mxgraph.aws4.timestream;glass=0;fillStyle=auto;strokeWidth=0;fontFamily=Verdana;" parent="1YG8F1t2I11W7s8lwDOm-96" vertex="1">
          <mxGeometry x="1069.5" y="212.25" width="46" height="46" as="geometry" />
        </mxCell>
        <mxCell id="B7Kx4DZGXoMoTLI39jHN-31" value="&lt;span style=&quot;font-size: 10px;&quot;&gt;Amazon Timestream&lt;/span&gt;" style="text;html=1;strokeColor=none;fillColor=none;align=center;verticalAlign=middle;whiteSpace=wrap;rounded=0;" parent="1YG8F1t2I11W7s8lwDOm-96" vertex="1">
          <mxGeometry x="1059.93" y="263.75" width="65.13" height="16.5" as="geometry" />
        </mxCell>
        <mxCell id="B7Kx4DZGXoMoTLI39jHN-32" value="" style="sketch=0;aspect=fixed;html=1;points=[];align=center;image;fontSize=12;image=img/lib/mscae/Docker.svg;glass=0;fillStyle=auto;strokeColor=default;strokeWidth=0;fontFamily=Verdana;fillColor=none;" parent="1YG8F1t2I11W7s8lwDOm-96" vertex="1">
          <mxGeometry x="871.88" y="361.76" width="48.78" height="40" as="geometry" />
        </mxCell>
        <mxCell id="B7Kx4DZGXoMoTLI39jHN-33" value="&lt;font style=&quot;font-size: 10px;&quot;&gt;Batch App&lt;/font&gt;" style="text;html=1;strokeColor=none;fillColor=none;align=center;verticalAlign=middle;whiteSpace=wrap;rounded=0;fontStyle=1" parent="1YG8F1t2I11W7s8lwDOm-96" vertex="1">
          <mxGeometry x="965" y="320" width="110" height="30" as="geometry" />
        </mxCell>
        <mxCell id="B7Kx4DZGXoMoTLI39jHN-34" value="" style="sketch=0;points=[[0,0,0],[0.25,0,0],[0.5,0,0],[0.75,0,0],[1,0,0],[0,1,0],[0.25,1,0],[0.5,1,0],[0.75,1,0],[1,1,0],[0,0.25,0],[0,0.5,0],[0,0.75,0],[1,0.25,0],[1,0.5,0],[1,0.75,0]];outlineConnect=0;fontColor=#232F3E;gradientColor=#F78E04;gradientDirection=north;fillColor=#D05C17;strokeColor=#ffffff;dashed=0;verticalLabelPosition=bottom;verticalAlign=top;align=center;html=1;fontSize=12;fontStyle=0;aspect=fixed;shape=mxgraph.aws4.resourceIcon;resIcon=mxgraph.aws4.ecr;glass=0;fillStyle=auto;strokeWidth=0;fontFamily=Verdana;" parent="1YG8F1t2I11W7s8lwDOm-96" vertex="1">
          <mxGeometry x="973.1599999999999" y="349.38" width="40" height="40" as="geometry" />
        </mxCell>
        <mxCell id="B7Kx4DZGXoMoTLI39jHN-35" value="&lt;font style=&quot;font-size: 10px;&quot;&gt;Amazon ECR&lt;/font&gt;" style="text;html=1;strokeColor=none;fillColor=none;align=center;verticalAlign=middle;whiteSpace=wrap;rounded=0;" parent="1YG8F1t2I11W7s8lwDOm-96" vertex="1">
          <mxGeometry x="931.8800000000001" y="389.38" width="122.56" height="16.5" as="geometry" />
        </mxCell>
        <mxCell id="B7Kx4DZGXoMoTLI39jHN-36" value="" style="sketch=0;points=[[0,0,0],[0.25,0,0],[0.5,0,0],[0.75,0,0],[1,0,0],[0,1,0],[0.25,1,0],[0.5,1,0],[0.75,1,0],[1,1,0],[0,0.25,0],[0,0.5,0],[0,0.75,0],[1,0.25,0],[1,0.5,0],[1,0.75,0]];outlineConnect=0;fontColor=#232F3E;gradientColor=#F78E04;gradientDirection=north;fillColor=#D05C17;strokeColor=#ffffff;dashed=0;verticalLabelPosition=bottom;verticalAlign=top;align=center;html=1;fontSize=12;fontStyle=0;aspect=fixed;shape=mxgraph.aws4.resourceIcon;resIcon=mxgraph.aws4.batch;glass=0;fillStyle=auto;strokeWidth=0;fontFamily=Verdana;" parent="1YG8F1t2I11W7s8lwDOm-96" vertex="1">
          <mxGeometry x="1086.94" y="349.38" width="40" height="40" as="geometry" />
        </mxCell>
        <mxCell id="B7Kx4DZGXoMoTLI39jHN-37" value="&lt;font style=&quot;font-size: 10px;&quot;&gt;AWS Batch&lt;br&gt;&lt;/font&gt;" style="text;html=1;strokeColor=none;fillColor=none;align=center;verticalAlign=middle;whiteSpace=wrap;rounded=0;" parent="1YG8F1t2I11W7s8lwDOm-96" vertex="1">
          <mxGeometry x="1065.48" y="389.38" width="82.91" height="16.5" as="geometry" />
        </mxCell>
        <mxCell id="B7Kx4DZGXoMoTLI39jHN-38" value="&lt;font style=&quot;font-size: 10px;&quot;&gt;Lambda App&lt;/font&gt;" style="text;html=1;strokeColor=none;fillColor=none;align=center;verticalAlign=middle;whiteSpace=wrap;rounded=0;fontStyle=1" parent="1YG8F1t2I11W7s8lwDOm-96" vertex="1">
          <mxGeometry x="965" y="449.25" width="110" height="30" as="geometry" />
        </mxCell>
        <mxCell id="B7Kx4DZGXoMoTLI39jHN-39" value="" style="sketch=0;aspect=fixed;html=1;points=[];align=center;image;fontSize=12;image=img/lib/mscae/Docker.svg;glass=0;fillStyle=auto;strokeColor=default;strokeWidth=0;fontFamily=Verdana;fillColor=none;" parent="1YG8F1t2I11W7s8lwDOm-96" vertex="1">
          <mxGeometry x="871.88" y="485.25" width="48.78" height="40" as="geometry" />
        </mxCell>
        <mxCell id="B7Kx4DZGXoMoTLI39jHN-40" value="" style="sketch=0;points=[[0,0,0],[0.25,0,0],[0.5,0,0],[0.75,0,0],[1,0,0],[0,1,0],[0.25,1,0],[0.5,1,0],[0.75,1,0],[1,1,0],[0,0.25,0],[0,0.5,0],[0,0.75,0],[1,0.25,0],[1,0.5,0],[1,0.75,0]];outlineConnect=0;fontColor=#232F3E;gradientColor=#F78E04;gradientDirection=north;fillColor=#D05C17;strokeColor=#ffffff;dashed=0;verticalLabelPosition=bottom;verticalAlign=top;align=center;html=1;fontSize=12;fontStyle=0;aspect=fixed;shape=mxgraph.aws4.resourceIcon;resIcon=mxgraph.aws4.ecr;glass=0;fillStyle=auto;strokeWidth=0;fontFamily=Verdana;" parent="1YG8F1t2I11W7s8lwDOm-96" vertex="1">
          <mxGeometry x="954.2199999999998" y="474.75" width="40" height="40" as="geometry" />
        </mxCell>
        <mxCell id="B7Kx4DZGXoMoTLI39jHN-41" value="&lt;font style=&quot;font-size: 10px;&quot;&gt;Amazon ECR&lt;/font&gt;" style="text;html=1;strokeColor=none;fillColor=none;align=center;verticalAlign=middle;whiteSpace=wrap;rounded=0;" parent="1YG8F1t2I11W7s8lwDOm-96" vertex="1">
          <mxGeometry x="912.9399999999999" y="514.75" width="122.56" height="16.5" as="geometry" />
        </mxCell>
        <mxCell id="B7Kx4DZGXoMoTLI39jHN-42" value="" style="sketch=0;points=[[0,0,0],[0.25,0,0],[0.5,0,0],[0.75,0,0],[1,0,0],[0,1,0],[0.25,1,0],[0.5,1,0],[0.75,1,0],[1,1,0],[0,0.25,0],[0,0.5,0],[0,0.75,0],[1,0.25,0],[1,0.5,0],[1,0.75,0]];outlineConnect=0;fontColor=#232F3E;gradientColor=#FF4F8B;gradientDirection=north;fillColor=#BC1356;strokeColor=#ffffff;dashed=0;verticalLabelPosition=bottom;verticalAlign=top;align=center;html=1;fontSize=12;fontStyle=0;aspect=fixed;shape=mxgraph.aws4.resourceIcon;resIcon=mxgraph.aws4.eventbridge;glass=0;fillStyle=auto;strokeWidth=0;fontFamily=Verdana;" parent="1YG8F1t2I11W7s8lwDOm-96" vertex="1">
          <mxGeometry x="1063.53" y="474.75" width="40.5" height="40.5" as="geometry" />
        </mxCell>
        <mxCell id="B7Kx4DZGXoMoTLI39jHN-43" value="&lt;font style=&quot;font-size: 10px;&quot;&gt;Amazon EventBridge&lt;/font&gt;" style="text;html=1;strokeColor=none;fillColor=none;align=center;verticalAlign=middle;whiteSpace=wrap;rounded=0;" parent="1YG8F1t2I11W7s8lwDOm-96" vertex="1">
          <mxGeometry x="1022.5" y="515.25" width="122.56" height="16.5" as="geometry" />
        </mxCell>
        <mxCell id="B7Kx4DZGXoMoTLI39jHN-44" value="" style="sketch=0;points=[[0,0,0],[0.25,0,0],[0.5,0,0],[0.75,0,0],[1,0,0],[0,1,0],[0.25,1,0],[0.5,1,0],[0.75,1,0],[1,1,0],[0,0.25,0],[0,0.5,0],[0,0.75,0],[1,0.25,0],[1,0.5,0],[1,0.75,0]];points=[[0,0,0],[0.25,0,0],[0.5,0,0],[0.75,0,0],[1,0,0],[0,1,0],[0.25,1,0],[0.5,1,0],[0.75,1,0],[1,1,0],[0,0.25,0],[0,0.5,0],[0,0.75,0],[1,0.25,0],[1,0.5,0],[1,0.75,0]];outlineConnect=0;fontColor=#232F3E;gradientColor=#F34482;gradientDirection=north;fillColor=#BC1356;strokeColor=#ffffff;dashed=0;verticalLabelPosition=bottom;verticalAlign=top;align=center;html=1;fontSize=12;fontStyle=0;aspect=fixed;shape=mxgraph.aws4.resourceIcon;resIcon=mxgraph.aws4.systems_manager;glass=0;fillStyle=auto;strokeWidth=0;fontFamily=Verdana;" parent="1YG8F1t2I11W7s8lwDOm-96" vertex="1">
          <mxGeometry x="890" y="212.25" width="50" height="50" as="geometry" />
        </mxCell>
        <mxCell id="hpeKW4kF99izodnpRywB-1" value="" style="sketch=0;outlineConnect=0;fontColor=#232F3E;gradientColor=none;fillColor=#B0084D;strokeColor=none;dashed=0;verticalLabelPosition=bottom;verticalAlign=top;align=center;html=1;fontSize=12;fontStyle=0;aspect=fixed;pointerEvents=1;shape=mxgraph.aws4.parameter_store;glass=0;fillStyle=auto;strokeWidth=0;fontFamily=Verdana;" parent="1YG8F1t2I11W7s8lwDOm-96" vertex="1">
          <mxGeometry x="1037.07" y="26" width="48.56" height="50.5" as="geometry" />
        </mxCell>
        <mxCell id="hpeKW4kF99izodnpRywB-2" value="" style="sketch=0;points=[[0,0,0],[0.25,0,0],[0.5,0,0],[0.75,0,0],[1,0,0],[0,1,0],[0.25,1,0],[0.5,1,0],[0.75,1,0],[1,1,0],[0,0.25,0],[0,0.5,0],[0,0.75,0],[1,0.25,0],[1,0.5,0],[1,0.75,0]];points=[[0,0,0],[0.25,0,0],[0.5,0,0],[0.75,0,0],[1,0,0],[0,1,0],[0.25,1,0],[0.5,1,0],[0.75,1,0],[1,1,0],[0,0.25,0],[0,0.5,0],[0,0.75,0],[1,0.25,0],[1,0.5,0],[1,0.75,0]];outlineConnect=0;fontColor=#232F3E;gradientColor=#F34482;gradientDirection=north;fillColor=#BC1356;strokeColor=#ffffff;dashed=0;verticalLabelPosition=bottom;verticalAlign=top;align=center;html=1;fontSize=12;fontStyle=0;aspect=fixed;shape=mxgraph.aws4.resourceIcon;resIcon=mxgraph.aws4.systems_manager;glass=0;fillStyle=auto;strokeWidth=0;fontFamily=Verdana;" parent="1YG8F1t2I11W7s8lwDOm-96" vertex="1">
          <mxGeometry x="933.0699999999999" y="36.25" width="50" height="50" as="geometry" />
        </mxCell>
        <mxCell id="hpeKW4kF99izodnpRywB-3" value="&lt;font style=&quot;font-size: 10px;&quot;&gt;Amazon SSM&lt;/font&gt;" style="text;html=1;strokeColor=none;fillColor=none;align=center;verticalAlign=middle;whiteSpace=wrap;rounded=0;" parent="1YG8F1t2I11W7s8lwDOm-96" vertex="1">
          <mxGeometry x="925.5" y="89.75" width="65.13" height="16.5" as="geometry" />
        </mxCell>
        <mxCell id="hpeKW4kF99izodnpRywB-4" value="&lt;font style=&quot;font-size: 10px;&quot;&gt;SSM Parameter Store:&lt;br&gt;VPC/Credentials IDs&lt;br&gt;&lt;br&gt;&lt;/font&gt;" style="text;html=1;strokeColor=none;fillColor=none;align=center;verticalAlign=middle;whiteSpace=wrap;rounded=0;" parent="1YG8F1t2I11W7s8lwDOm-96" vertex="1">
          <mxGeometry x="1007.21" y="89.75" width="108.29" height="16.5" as="geometry" />
        </mxCell>
        <mxCell id="16PYUai225Q7Kwx9W1Nj-1" value="3" style="rounded=1;whiteSpace=wrap;html=1;fillColor=#007CBD;strokeColor=none;fontColor=#FFFFFF;fontStyle=1;fontSize=22;" parent="1YG8F1t2I11W7s8lwDOm-96" vertex="1">
          <mxGeometry x="1243.5" y="317.88" width="40" height="38" as="geometry" />
        </mxCell>
        <mxCell id="16PYUai225Q7Kwx9W1Nj-2" value="" style="sketch=0;aspect=fixed;pointerEvents=1;shadow=0;dashed=0;html=1;strokeColor=none;labelPosition=center;verticalLabelPosition=bottom;verticalAlign=top;align=center;fillColor=#00188D;shape=mxgraph.azure.user;glass=0;fillStyle=auto;strokeWidth=0;fontFamily=Verdana;fontSize=10;" parent="1YG8F1t2I11W7s8lwDOm-96" vertex="1">
          <mxGeometry x="1238" y="355.88" width="47" height="50" as="geometry" />
        </mxCell>
        <mxCell id="htd3RePkARj6xEcTo_XB-9" value="" style="group" parent="1" vertex="1" connectable="0">
          <mxGeometry x="1430" y="244" width="500" height="790" as="geometry" />
        </mxCell>
        <mxCell id="7OVz4w7n9kzEPWy-4BBC-3" value="" style="rounded=0;whiteSpace=wrap;html=1;fillColor=#EAEDED;fontSize=22;fontColor=#FFFFFF;strokeColor=none;labelBackgroundColor=none;" parent="htd3RePkARj6xEcTo_XB-9" vertex="1">
          <mxGeometry width="500" height="790" as="geometry" />
        </mxCell>
        <mxCell id="7OVz4w7n9kzEPWy-4BBC-4" value="1" style="rounded=1;whiteSpace=wrap;html=1;fillColor=#007CBD;strokeColor=none;fontColor=#FFFFFF;fontStyle=1;fontSize=22;labelBackgroundColor=none;" parent="htd3RePkARj6xEcTo_XB-9" vertex="1">
          <mxGeometry x="25.04638218923933" y="20.487822497420023" width="37.105751391465674" height="30.980392156862745" as="geometry" />
        </mxCell>
        <mxCell id="7OVz4w7n9kzEPWy-4BBC-5" value="2" style="rounded=1;whiteSpace=wrap;html=1;fillColor=#007CBD;strokeColor=none;fontColor=#FFFFFF;fontStyle=1;fontSize=22;labelBackgroundColor=none;" parent="htd3RePkARj6xEcTo_XB-9" vertex="1">
          <mxGeometry x="24.58256029684601" y="119.95118679050567" width="37.105751391465674" height="30.980392156862745" as="geometry" />
        </mxCell>
        <mxCell id="7OVz4w7n9kzEPWy-4BBC-13" value="Use AWS Cloud9 command line interface to deploy AWS CDK code. This installs the entire stack in your AWS account." style="text;html=1;align=left;verticalAlign=top;spacingTop=-4;fontSize=14;labelBackgroundColor=none;whiteSpace=wrap;" parent="htd3RePkARj6xEcTo_XB-9" vertex="1">
          <mxGeometry x="72.82003710575138" y="20.08018575851393" width="416.51205936920223" height="28.836222910216716" as="geometry" />
        </mxCell>
        <mxCell id="7OVz4w7n9kzEPWy-4BBC-14" value="&lt;span&gt;Populate secrets with accurate values (AWS CDK populates it with dummy values) in AWS Secrets Manager.&lt;/span&gt;" style="text;html=1;align=left;verticalAlign=top;spacingTop=-4;fontSize=14;labelBackgroundColor=none;whiteSpace=wrap;" parent="htd3RePkARj6xEcTo_XB-9" vertex="1">
          <mxGeometry x="72.82003710575138" y="120.35882352941177" width="417.43970315398883" height="50.84860681114551" as="geometry" />
        </mxCell>
        <mxCell id="hpeKW4kF99izodnpRywB-5" style="edgeStyle=orthogonalEdgeStyle;rounded=0;orthogonalLoop=1;jettySize=auto;html=1;entryX=0;entryY=0.5;entryDx=0;entryDy=0;" parent="1" source="pSxyhMbPlTyfpxuRHcjZ-17" target="1YG8F1t2I11W7s8lwDOm-12" edge="1">
          <mxGeometry relative="1" as="geometry">
            <Array as="points">
              <mxPoint x="286" y="414" />
            </Array>
          </mxGeometry>
        </mxCell>
        <mxCell id="16PYUai225Q7Kwx9W1Nj-3" value="3" style="rounded=1;whiteSpace=wrap;html=1;fillColor=#007CBD;strokeColor=none;fontColor=#FFFFFF;fontStyle=1;fontSize=22;labelBackgroundColor=none;" parent="1" vertex="1">
          <mxGeometry x="1455.582560296846" y="458.9511867905057" width="37.105751391465674" height="30.980392156862745" as="geometry" />
        </mxCell>
        <mxCell id="16PYUai225Q7Kwx9W1Nj-4" value="&lt;span&gt;Stacks will need to be redeployed to implement any application coding changes.&lt;/span&gt;" style="text;html=1;align=left;verticalAlign=top;spacingTop=-4;fontSize=14;labelBackgroundColor=none;whiteSpace=wrap;" parent="1" vertex="1">
          <mxGeometry x="1503.8200371057515" y="459.3588235294118" width="417.43970315398883" height="50.84860681114551" as="geometry" />
        </mxCell>
      </root>
    </mxGraphModel>
  </diagram>
  <diagram id="-ZAVRzTSlffv4ucb7CEE" name="Operational View">
    <mxGraphModel dx="1306" dy="726" grid="1" gridSize="10" guides="1" tooltips="1" connect="1" arrows="1" fold="1" page="1" pageScale="1" pageWidth="850" pageHeight="1100" math="0" shadow="0">
      <root>
        <mxCell id="0" />
        <mxCell id="1" parent="0" />
        <mxCell id="J69XKv-kTKiFTESBYcB9-1" value="Real Time Quant Trading - Operational View" style="text;html=1;resizable=0;points=[];autosize=1;align=left;verticalAlign=top;spacingTop=-4;fontSize=30;fontStyle=1" parent="1" vertex="1">
          <mxGeometry x="12" y="87.5" width="650" height="40" as="geometry" />
        </mxCell>
        <mxCell id="J69XKv-kTKiFTESBYcB9-3" value="" style="line;strokeWidth=2;html=1;fontSize=14;" parent="1" vertex="1">
          <mxGeometry x="8" y="140.5" width="1372" height="10" as="geometry" />
        </mxCell>
        <mxCell id="J69XKv-kTKiFTESBYcB9-69" value="AWS Cloud" style="points=[[0,0],[0.25,0],[0.5,0],[0.75,0],[1,0],[1,0.25],[1,0.5],[1,0.75],[1,1],[0.75,1],[0.5,1],[0.25,1],[0,1],[0,0.75],[0,0.5],[0,0.25]];outlineConnect=0;gradientColor=none;html=1;whiteSpace=wrap;fontSize=12;fontStyle=0;shape=mxgraph.aws4.group;grIcon=mxgraph.aws4.group_aws_cloud_alt;strokeColor=#232F3E;fillColor=none;verticalAlign=top;align=left;spacingLeft=30;fontColor=#232F3E;dashed=0;container=1;pointerEvents=0;collapsible=0;recursiveResize=0;" parent="1" vertex="1">
          <mxGeometry x="90" y="244" width="1310" height="806" as="geometry" />
        </mxCell>
        <mxCell id="J69XKv-kTKiFTESBYcB9-80" value="" style="rounded=0;whiteSpace=wrap;html=1;sketch=1;fillStyle=auto;fontSize=10;fillColor=none;" parent="J69XKv-kTKiFTESBYcB9-69" vertex="1">
          <mxGeometry x="960" y="269.37" width="300" height="160.63" as="geometry" />
        </mxCell>
        <mxCell id="J69XKv-kTKiFTESBYcB9-81" value="&lt;font style=&quot;font-size: 13px;&quot;&gt;Amazon Managed&lt;br&gt;Grafana&lt;/font&gt;" style="sketch=0;points=[[0,0,0],[0.25,0,0],[0.5,0,0],[0.75,0,0],[1,0,0],[0,1,0],[0.25,1,0],[0.5,1,0],[0.75,1,0],[1,1,0],[0,0.25,0],[0,0.5,0],[0,0.75,0],[1,0.25,0],[1,0.5,0],[1,0.75,0]];points=[[0,0,0],[0.25,0,0],[0.5,0,0],[0.75,0,0],[1,0,0],[0,1,0],[0.25,1,0],[0.5,1,0],[0.75,1,0],[1,1,0],[0,0.25,0],[0,0.5,0],[0,0.75,0],[1,0.25,0],[1,0.5,0],[1,0.75,0]];outlineConnect=0;fontColor=#232F3E;gradientColor=#F34482;gradientDirection=north;fillColor=#BC1356;strokeColor=#ffffff;dashed=0;verticalLabelPosition=bottom;verticalAlign=top;align=center;html=1;fontSize=12;fontStyle=0;aspect=fixed;shape=mxgraph.aws4.resourceIcon;resIcon=mxgraph.aws4.managed_service_for_grafana;fontFamily=Helvetica;" parent="J69XKv-kTKiFTESBYcB9-69" vertex="1">
          <mxGeometry x="1065.5" y="311.87" width="70" height="70" as="geometry" />
        </mxCell>
        <mxCell id="J69XKv-kTKiFTESBYcB9-82" value="&lt;font style=&quot;font-size: 10px;&quot;&gt;Visualization App&lt;br&gt;&lt;/font&gt;" style="text;html=1;strokeColor=none;fillColor=none;align=center;verticalAlign=middle;whiteSpace=wrap;rounded=0;fontStyle=1" parent="J69XKv-kTKiFTESBYcB9-69" vertex="1">
          <mxGeometry x="1039.5" y="274.37" width="110" height="30" as="geometry" />
        </mxCell>
        <mxCell id="J69XKv-kTKiFTESBYcB9-91" value="4" style="rounded=1;whiteSpace=wrap;html=1;fillColor=#007CBD;strokeColor=none;fontColor=#FFFFFF;fontStyle=1;fontSize=22;labelBackgroundColor=none;" parent="J69XKv-kTKiFTESBYcB9-69" vertex="1">
          <mxGeometry x="1150.5" y="311.87" width="40" height="38" as="geometry" />
        </mxCell>
        <mxCell id="J69XKv-kTKiFTESBYcB9-49" value="" style="sketch=0;points=[[0,0,0],[0.25,0,0],[0.5,0,0],[0.75,0,0],[1,0,0],[0,1,0],[0.25,1,0],[0.5,1,0],[0.75,1,0],[1,1,0],[0,0.25,0],[0,0.5,0],[0,0.75,0],[1,0.25,0],[1,0.5,0],[1,0.75,0]];outlineConnect=0;fontColor=#232F3E;gradientColor=#FF4F8B;gradientDirection=north;fillColor=#BC1356;strokeColor=#ffffff;dashed=0;verticalLabelPosition=bottom;verticalAlign=top;align=center;html=1;fontSize=12;fontStyle=0;aspect=fixed;shape=mxgraph.aws4.resourceIcon;resIcon=mxgraph.aws4.eventbridge;glass=0;fillStyle=auto;strokeWidth=0;fontFamily=Verdana;" parent="J69XKv-kTKiFTESBYcB9-69" vertex="1">
          <mxGeometry x="169.99999999999997" y="410.37" width="58" height="58" as="geometry" />
        </mxCell>
        <mxCell id="J69XKv-kTKiFTESBYcB9-55" value="VPC" style="points=[[0,0],[0.25,0],[0.5,0],[0.75,0],[1,0],[1,0.25],[1,0.5],[1,0.75],[1,1],[0.75,1],[0.5,1],[0.25,1],[0,1],[0,0.75],[0,0.5],[0,0.25]];outlineConnect=0;gradientColor=none;html=1;whiteSpace=wrap;fontSize=12;fontStyle=0;container=1;pointerEvents=0;collapsible=0;recursiveResize=0;shape=mxgraph.aws4.group;grIcon=mxgraph.aws4.group_vpc;strokeColor=#248814;fillColor=none;verticalAlign=top;align=left;spacingLeft=30;fontColor=#AAB7B8;dashed=0;glass=0;sketch=1;fillStyle=auto;strokeWidth=0;fontFamily=Verdana;" parent="J69XKv-kTKiFTESBYcB9-69" vertex="1">
          <mxGeometry x="340" y="126" width="585.24" height="456.75" as="geometry" />
        </mxCell>
        <mxCell id="J69XKv-kTKiFTESBYcB9-70" value="Availability Zone" style="fillColor=none;strokeColor=#147EBA;dashed=1;verticalAlign=top;fontStyle=0;fontColor=#147EBA;glass=0;sketch=1;fillStyle=auto;strokeWidth=0;fontFamily=Verdana;fontSize=10;" parent="J69XKv-kTKiFTESBYcB9-55" vertex="1">
          <mxGeometry x="10" y="6" width="570" height="444" as="geometry" />
        </mxCell>
        <mxCell id="J69XKv-kTKiFTESBYcB9-56" value="" style="sketch=0;points=[[0,0,0],[0.25,0,0],[0.5,0,0],[0.75,0,0],[1,0,0],[0,1,0],[0.25,1,0],[0.5,1,0],[0.75,1,0],[1,1,0],[0,0.25,0],[0,0.5,0],[0,0.75,0],[1,0.25,0],[1,0.5,0],[1,0.75,0]];outlineConnect=0;fontColor=#232F3E;gradientColor=#F78E04;gradientDirection=north;fillColor=#D05C17;strokeColor=#ffffff;dashed=0;verticalLabelPosition=bottom;verticalAlign=top;align=center;html=1;fontSize=12;fontStyle=0;aspect=fixed;shape=mxgraph.aws4.resourceIcon;resIcon=mxgraph.aws4.batch;glass=0;fillStyle=auto;strokeWidth=0;fontFamily=Verdana;" parent="J69XKv-kTKiFTESBYcB9-55" vertex="1">
          <mxGeometry x="38.03" y="39" width="58" height="58" as="geometry" />
        </mxCell>
        <mxCell id="J69XKv-kTKiFTESBYcB9-57" value="&lt;font style=&quot;font-size: 13px;&quot;&gt;AWS Batch&lt;br style=&quot;font-size: 13px;&quot;&gt;(one per symbol range)&lt;br style=&quot;font-size: 13px;&quot;&gt;&lt;/font&gt;" style="text;html=1;strokeColor=none;fillColor=none;align=center;verticalAlign=middle;whiteSpace=wrap;rounded=0;fontSize=13;" parent="J69XKv-kTKiFTESBYcB9-55" vertex="1">
          <mxGeometry x="17.57" y="126" width="110" height="16.5" as="geometry" />
        </mxCell>
        <mxCell id="kHTrximqHzLaZTzDJL0c-1" style="edgeStyle=orthogonalEdgeStyle;rounded=0;orthogonalLoop=1;jettySize=auto;html=1;" parent="J69XKv-kTKiFTESBYcB9-55" source="J69XKv-kTKiFTESBYcB9-58" target="J69XKv-kTKiFTESBYcB9-59" edge="1">
          <mxGeometry relative="1" as="geometry" />
        </mxCell>
        <mxCell id="J69XKv-kTKiFTESBYcB9-58" value="" style="sketch=0;points=[[0,0,0],[0.25,0,0],[0.5,0,0],[0.75,0,0],[1,0,0],[0,1,0],[0.25,1,0],[0.5,1,0],[0.75,1,0],[1,1,0],[0,0.25,0],[0,0.5,0],[0,0.75,0],[1,0.25,0],[1,0.5,0],[1,0.75,0]];outlineConnect=0;fontColor=#232F3E;gradientColor=#F78E04;gradientDirection=north;fillColor=#D05C17;strokeColor=#ffffff;dashed=0;verticalLabelPosition=bottom;verticalAlign=top;align=center;html=1;fontSize=12;fontStyle=0;aspect=fixed;shape=mxgraph.aws4.resourceIcon;resIcon=mxgraph.aws4.batch;glass=0;fillStyle=auto;strokeWidth=0;fontFamily=Verdana;" parent="J69XKv-kTKiFTESBYcB9-55" vertex="1">
          <mxGeometry x="50" y="50.97" width="58" height="58" as="geometry" />
        </mxCell>
        <mxCell id="J69XKv-kTKiFTESBYcB9-59" value="" style="sketch=0;points=[[0,0,0],[0.25,0,0],[0.5,0,0],[0.75,0,0],[1,0,0],[0,1,0],[0.25,1,0],[0.5,1,0],[0.75,1,0],[1,1,0],[0,0.25,0],[0,0.5,0],[0,0.75,0],[1,0.25,0],[1,0.5,0],[1,0.75,0]];outlineConnect=0;fontColor=#232F3E;gradientColor=#4D72F3;gradientDirection=north;fillColor=#3334B9;strokeColor=#ffffff;dashed=0;verticalLabelPosition=bottom;verticalAlign=top;align=center;html=1;fontSize=12;fontStyle=0;aspect=fixed;shape=mxgraph.aws4.resourceIcon;resIcon=mxgraph.aws4.timestream;glass=0;fillStyle=auto;strokeWidth=0;fontFamily=Verdana;" parent="J69XKv-kTKiFTESBYcB9-55" vertex="1">
          <mxGeometry x="409.99999999999994" y="45.97" width="68" height="68" as="geometry" />
        </mxCell>
        <mxCell id="J69XKv-kTKiFTESBYcB9-60" value="&lt;span style=&quot;font-size: 13px;&quot;&gt;Amazon Timestream&lt;/span&gt;" style="text;html=1;strokeColor=none;fillColor=none;align=center;verticalAlign=middle;whiteSpace=wrap;rounded=0;fontSize=13;" parent="J69XKv-kTKiFTESBYcB9-55" vertex="1">
          <mxGeometry x="411.87" y="120" width="65.13" height="16.5" as="geometry" />
        </mxCell>
        <mxCell id="kHTrximqHzLaZTzDJL0c-2" style="edgeStyle=orthogonalEdgeStyle;rounded=0;orthogonalLoop=1;jettySize=auto;html=1;entryX=1;entryY=0.5;entryDx=0;entryDy=0;entryPerimeter=0;" parent="J69XKv-kTKiFTESBYcB9-55" source="J69XKv-kTKiFTESBYcB9-61" target="J69XKv-kTKiFTESBYcB9-64" edge="1">
          <mxGeometry relative="1" as="geometry" />
        </mxCell>
        <mxCell id="J69XKv-kTKiFTESBYcB9-61" value="" style="sketch=0;points=[[0,0,0],[0.25,0,0],[0.5,0,0],[0.75,0,0],[1,0,0],[0,1,0],[0.25,1,0],[0.5,1,0],[0.75,1,0],[1,1,0],[0,0.25,0],[0,0.5,0],[0,0.75,0],[1,0.25,0],[1,0.5,0],[1,0.75,0]];outlineConnect=0;fontColor=#232F3E;gradientColor=#4D72F3;gradientDirection=north;fillColor=#3334B9;strokeColor=#ffffff;dashed=0;verticalLabelPosition=bottom;verticalAlign=top;align=center;html=1;fontSize=12;fontStyle=0;aspect=fixed;shape=mxgraph.aws4.resourceIcon;resIcon=mxgraph.aws4.dynamodb;glass=0;fillStyle=auto;strokeWidth=0;fontFamily=Verdana;" parent="J69XKv-kTKiFTESBYcB9-55" vertex="1">
          <mxGeometry x="410.4399999999999" y="234" width="68" height="68" as="geometry" />
        </mxCell>
        <mxCell id="J69XKv-kTKiFTESBYcB9-62" value="&lt;span style=&quot;font-size: 13px;&quot;&gt;Amazon DynamoDB&lt;/span&gt;" style="text;html=1;strokeColor=none;fillColor=none;align=center;verticalAlign=middle;whiteSpace=wrap;rounded=0;fontSize=13;" parent="J69XKv-kTKiFTESBYcB9-55" vertex="1">
          <mxGeometry x="411.4300000000002" y="310.5" width="65.13" height="16.5" as="geometry" />
        </mxCell>
        <mxCell id="sS3d0X_QNsqGFdabqs25-10" style="edgeStyle=orthogonalEdgeStyle;rounded=0;orthogonalLoop=1;jettySize=auto;html=1;targetPerimeterSpacing=0;" edge="1" parent="J69XKv-kTKiFTESBYcB9-55" source="J69XKv-kTKiFTESBYcB9-64">
          <mxGeometry relative="1" as="geometry">
            <mxPoint x="73" y="160" as="targetPoint" />
          </mxGeometry>
        </mxCell>
        <mxCell id="J69XKv-kTKiFTESBYcB9-64" value="" style="sketch=0;points=[[0,0,0],[0.25,0,0],[0.5,0,0],[0.75,0,0],[1,0,0],[0,1,0],[0.25,1,0],[0.5,1,0],[0.75,1,0],[1,1,0],[0,0.25,0],[0,0.5,0],[0,0.75,0],[1,0.25,0],[1,0.5,0],[1,0.75,0]];outlineConnect=0;fontColor=#232F3E;gradientColor=#F78E04;gradientDirection=north;fillColor=#D05C17;strokeColor=#ffffff;dashed=0;verticalLabelPosition=bottom;verticalAlign=top;align=center;html=1;fontSize=12;fontStyle=0;aspect=fixed;shape=mxgraph.aws4.resourceIcon;resIcon=mxgraph.aws4.lambda;glass=0;fillStyle=auto;strokeWidth=0;fontFamily=Verdana;" parent="J69XKv-kTKiFTESBYcB9-55" vertex="1">
          <mxGeometry x="38.57" y="234" width="68" height="68" as="geometry" />
        </mxCell>
        <mxCell id="J69XKv-kTKiFTESBYcB9-65" value="&lt;span style=&quot;font-size: 13px;&quot;&gt;AWS Lambda&lt;br style=&quot;font-size: 13px;&quot;&gt;(Launch new batches for new symbols intraday)&lt;br style=&quot;font-size: 13px;&quot;&gt;&lt;/span&gt;" style="text;html=1;strokeColor=none;fillColor=none;align=center;verticalAlign=middle;whiteSpace=wrap;rounded=0;fontSize=13;" parent="J69XKv-kTKiFTESBYcB9-55" vertex="1">
          <mxGeometry x="9.24" y="327" width="127.57" height="16.5" as="geometry" />
        </mxCell>
        <mxCell id="J69XKv-kTKiFTESBYcB9-90" value="3" style="rounded=1;whiteSpace=wrap;html=1;fillColor=#007CBD;strokeColor=none;fontColor=#FFFFFF;fontStyle=1;fontSize=22;labelBackgroundColor=none;" parent="J69XKv-kTKiFTESBYcB9-55" vertex="1">
          <mxGeometry x="190.00000000000006" y="83.13" width="42.5" height="36.87" as="geometry" />
        </mxCell>
        <mxCell id="J69XKv-kTKiFTESBYcB9-89" value="2" style="rounded=1;whiteSpace=wrap;html=1;fillColor=#007CBD;strokeColor=none;fontColor=#FFFFFF;fontStyle=1;fontSize=22;labelBackgroundColor=none;" parent="J69XKv-kTKiFTESBYcB9-55" vertex="1">
          <mxGeometry x="259.99999999999994" y="225" width="40" height="38" as="geometry" />
        </mxCell>
        <mxCell id="J69XKv-kTKiFTESBYcB9-87" value="1" style="rounded=1;whiteSpace=wrap;html=1;fillColor=#007CBD;strokeColor=none;fontColor=#FFFFFF;fontStyle=1;fontSize=22;" parent="J69XKv-kTKiFTESBYcB9-55" vertex="1">
          <mxGeometry x="450" y="360" width="40" height="38" as="geometry" />
        </mxCell>
        <mxCell id="J69XKv-kTKiFTESBYcB9-50" value="&lt;font style=&quot;font-size: 13px;&quot;&gt;Amazon EventBridge (source of schedules based on trading hours)&lt;/font&gt;" style="text;html=1;strokeColor=none;fillColor=none;align=center;verticalAlign=middle;whiteSpace=wrap;rounded=0;fontSize=13;" parent="J69XKv-kTKiFTESBYcB9-69" vertex="1">
          <mxGeometry x="137.72" y="492" width="122.56" height="16.5" as="geometry" />
        </mxCell>
        <mxCell id="J69XKv-kTKiFTESBYcB9-48" style="edgeStyle=orthogonalEdgeStyle;rounded=0;orthogonalLoop=1;jettySize=auto;html=1;fontFamily=Verdana;fontSize=10;" parent="J69XKv-kTKiFTESBYcB9-69" source="J69XKv-kTKiFTESBYcB9-49" target="J69XKv-kTKiFTESBYcB9-64" edge="1">
          <mxGeometry relative="1" as="geometry">
            <Array as="points">
              <mxPoint x="240" y="439" />
              <mxPoint x="240" y="376" />
            </Array>
          </mxGeometry>
        </mxCell>
        <mxCell id="J69XKv-kTKiFTESBYcB9-71" value="" style="endArrow=classic;html=1;rounded=0;fontFamily=Verdana;fontSize=10;exitX=0.668;exitY=0.999;exitDx=0;exitDy=0;exitPerimeter=0;sourcePerimeterSpacing=0;targetPerimeterSpacing=0;startSize=6;" parent="J69XKv-kTKiFTESBYcB9-69" edge="1">
          <mxGeometry x="0.2132" y="270" width="50" height="50" relative="1" as="geometry">
            <mxPoint x="785.2603199999999" y="594.3" as="sourcePoint" />
            <mxPoint x="785" y="460" as="targetPoint" />
            <mxPoint y="-1" as="offset" />
            <Array as="points">
              <mxPoint x="785" y="526" />
            </Array>
          </mxGeometry>
        </mxCell>
        <mxCell id="J69XKv-kTKiFTESBYcB9-92" value="" style="sketch=0;aspect=fixed;pointerEvents=1;shadow=0;dashed=0;html=1;strokeColor=none;labelPosition=center;verticalLabelPosition=bottom;verticalAlign=top;align=center;fillColor=#00188D;shape=mxgraph.azure.user;glass=0;fillStyle=auto;strokeWidth=0;fontFamily=Verdana;fontSize=10;" parent="J69XKv-kTKiFTESBYcB9-69" vertex="1">
          <mxGeometry x="757.8600000000001" y="597" width="47" height="50" as="geometry" />
        </mxCell>
        <mxCell id="J69XKv-kTKiFTESBYcB9-93" value="&lt;font style=&quot;font-size: 13px;&quot;&gt;User&lt;/font&gt;" style="text;html=1;strokeColor=none;fillColor=none;align=center;verticalAlign=middle;whiteSpace=wrap;rounded=0;fontSize=13;" parent="J69XKv-kTKiFTESBYcB9-69" vertex="1">
          <mxGeometry x="754.3600000000001" y="651" width="60" height="16.5" as="geometry" />
        </mxCell>
        <mxCell id="J69XKv-kTKiFTESBYcB9-94" value="" style="group" parent="1" vertex="1" connectable="0">
          <mxGeometry x="1430" y="244" width="500" height="786" as="geometry" />
        </mxCell>
        <mxCell id="J69XKv-kTKiFTESBYcB9-95" value="" style="rounded=0;whiteSpace=wrap;html=1;fillColor=#EAEDED;fontSize=22;fontColor=#FFFFFF;strokeColor=none;labelBackgroundColor=none;" parent="J69XKv-kTKiFTESBYcB9-94" vertex="1">
          <mxGeometry width="500" height="785.9999999999999" as="geometry" />
        </mxCell>
        <mxCell id="J69XKv-kTKiFTESBYcB9-98" value="1" style="rounded=1;whiteSpace=wrap;html=1;fillColor=#007CBD;strokeColor=none;fontColor=#FFFFFF;fontStyle=1;fontSize=22;labelBackgroundColor=none;" parent="J69XKv-kTKiFTESBYcB9-94" vertex="1">
          <mxGeometry x="20.002560296846013" y="37.03552815769877" width="37.105751391465674" height="30.823529411764703" as="geometry" />
        </mxCell>
        <mxCell id="J69XKv-kTKiFTESBYcB9-99" value="2" style="rounded=1;whiteSpace=wrap;html=1;fillColor=#007CBD;strokeColor=none;fontColor=#FFFFFF;fontStyle=1;fontSize=22;labelBackgroundColor=none;" parent="J69XKv-kTKiFTESBYcB9-94" vertex="1">
          <mxGeometry x="20.002560296846013" y="129.50611639299288" width="37.105751391465674" height="30.823529411764703" as="geometry" />
        </mxCell>
        <mxCell id="J69XKv-kTKiFTESBYcB9-100" value="3" style="rounded=1;whiteSpace=wrap;html=1;fillColor=#007CBD;strokeColor=none;fontColor=#FFFFFF;fontStyle=1;fontSize=22;labelBackgroundColor=none;" parent="J69XKv-kTKiFTESBYcB9-94" vertex="1">
          <mxGeometry x="21.394025974025972" y="224.41014116079472" width="37.105751391465674" height="30.823529411764703" as="geometry" />
        </mxCell>
        <mxCell id="J69XKv-kTKiFTESBYcB9-101" value="4" style="rounded=1;whiteSpace=wrap;html=1;fillColor=#007CBD;strokeColor=none;fontColor=#FFFFFF;fontStyle=1;fontSize=22;labelBackgroundColor=none;" parent="J69XKv-kTKiFTESBYcB9-94" vertex="1">
          <mxGeometry x="22.321669758812618" y="317.69187490692474" width="37.105751391465674" height="30.823529411764703" as="geometry" />
        </mxCell>
        <mxCell id="J69XKv-kTKiFTESBYcB9-104" value="&lt;span&gt;Insert your portfolio into Amazon DynamoDB table (samples are provided in code). Portfolio(s) determine the universe of symbols for market data subscription.&lt;/span&gt;" style="text;html=1;align=left;verticalAlign=top;spacingTop=-4;fontSize=14;labelBackgroundColor=none;whiteSpace=wrap;" parent="J69XKv-kTKiFTESBYcB9-94" vertex="1">
          <mxGeometry x="68.24003710575138" y="35.81880989144493" width="417.43970315398883" height="94.90402476780184" as="geometry" />
        </mxCell>
        <mxCell id="J69XKv-kTKiFTESBYcB9-105" value="&lt;span&gt;Portfolio change (insert, update, delete) triggers Lambda function handler that creates AWS Batch Job that listens to real-time data from configured data provider.&lt;/span&gt;" style="text;html=1;align=left;verticalAlign=top;spacingTop=-4;fontSize=14;labelBackgroundColor=none;whiteSpace=wrap;" parent="J69XKv-kTKiFTESBYcB9-94" vertex="1">
          <mxGeometry x="68.24003710575138" y="129.91168914841083" width="417.43970315398883" height="98.1486068111455" as="geometry" />
        </mxCell>
        <mxCell id="J69XKv-kTKiFTESBYcB9-106" value="AWS Batch job writes market data into Amazon Timestream" style="text;html=1;align=left;verticalAlign=top;spacingTop=-4;fontSize=14;labelBackgroundColor=none;whiteSpace=wrap;" parent="J69XKv-kTKiFTESBYcB9-94" vertex="1">
          <mxGeometry x="69.16768089053804" y="224.8157139162127" width="416.51205936920223" height="92.4705882352941" as="geometry" />
        </mxCell>
        <mxCell id="J69XKv-kTKiFTESBYcB9-107" value="Amazon Managed Grafana connects to Amazon Timestream to produce real-time visualizations." style="text;html=1;align=left;verticalAlign=top;spacingTop=-4;fontSize=14;labelBackgroundColor=none;whiteSpace=wrap;" parent="J69XKv-kTKiFTESBYcB9-94" vertex="1">
          <mxGeometry x="69.16768089053804" y="318.9085931731787" width="417.43970315398883" height="95.71517027863777" as="geometry" />
        </mxCell>
      </root>
    </mxGraphModel>
  </diagram>
</mxfile>
